<svg xmlns="http://www.w3.org/2000/svg" viewBox="0 0 32 40" x="0px" y="0px"><g><path d="M9.939,31.044a4.81406,4.81406,0,0,1-3.99609-2.22266,1.33553,1.33553,0,0,1-1.30029-2.11914,1.5164,1.5164,0,0,1-.54541-.80957,1.32473,1.32473,0,0,1-1.44678-2.00684A4.66464,4.66464,0,0,1,3.815,17.333l6.52777-4.34181a4.39638,4.39638,0,0,1,2.0625-.752c-.00976-.17871-.01123-.36035-.01074-.53516a1.32324,1.32324,0,0,1,.04053-2.47851,1.61416,1.61416,0,0,1-.00391-.9961,1.33278,1.33278,0,0,1-.06592-2.46484A4.42558,4.42558,0,0,1,16.71.959l8.3403,0A4.3803,4.3803,0,0,1,29.375,5.75391a1.32266,1.32266,0,0,1-.07764,2.48925,1.62856,1.62856,0,0,1-.0039.97168,1.33165,1.33165,0,0,1,.105,2.48047,4.78073,4.78073,0,0,1-2.502,4.30762,4.60655,4.60655,0,0,1,2.47608,4.29492,1.3217,1.3217,0,0,1-.08008,2.48633,1.46283,1.46283,0,0,1-.00537.96973,1.32146,1.32146,0,0,1,.11084,2.47754A4.65811,4.65811,0,0,1,24.8105,31.041l-7.85689,0a4.56812,4.56812,0,0,1-3.39648-1.51954A6.21472,6.21472,0,0,1,9.939,31.044Zm-3.11767-2.707a3.64776,3.64776,0,0,0,5.04005,1.11031l6.06688-4.038a3.67086,3.67086,0,0,0,1.38037-5.3916C15.62,22.47622,10.24559,26.04627,6.82129,28.33691Zm7.5791.623A3.565,3.565,0,0,0,16.95361,30.041h7.86084a3.641,3.641,0,0,0,3.584-3.7168h-10.04ZM6.31152,26.72852a.52642.52642,0,0,1-.04638.03515l-.77539.50977c-.34219.2208.025.74681.34959.51563,5.37068-3.58859,8.86919-5.912,13.35841-8.89747l.001-.001a.3048.3048,0,0,0-.01025-.52832c-.23762-.18118-.66241.26929-1.14211.55077C14.54417,21.24074,10.43732,23.97787,6.31152,26.72852ZM5.13037,25.27441c-.31064.31394.18568.9443.59375.64551l-.00049-.001c3.86735-2.581,8.4256-5.61531,11.7759-7.84377a.43941.43941,0,0,0-.30421-.793C16.99351,17.30161,5.29356,25.20755,5.13037,25.27441Zm14.55225.04981H28.915a.31254.31254,0,0,0,0-.625H20.20166A3.90488,3.90488,0,0,1,19.68262,25.32422ZM3.57031,24.3623c-.41247.33272.10332.80031.4575.44627C7.882,22.18139,12.37258,19.237,16.459,16.5127l.00879.01367.00391-.00293-.00879-.01367c.29286-.20309.83235-.40369.959-.75582a.32369.32369,0,0,0-.51958-.2647l-1.03027.69044C15.84608,16.21651,3.5959,24.33261,3.57031,24.3623Zm17.14307-.66308H27.938a.442.442,0,0,0,.13083-.85938H20.93555A4.27668,4.27668,0,0,1,20.71338,23.69922ZM12.832,13.21973a3.40086,3.40086,0,0,0-1.9331.60254L4.36572,18.167a3.65642,3.65642,0,0,0-.93457,5.08789l12.51563-8.3291A3.7725,3.7725,0,0,0,12.832,13.21973Zm15.34961,8.62011h.7334a.31281.31281,0,0,0,0-.625l-8.01267,0a4.00612,4.00612,0,0,1,.084.6045H27.937A.55082.55082,0,0,1,28.18164,21.83984Zm-7.60889-1.625h7.79981a3.57668,3.57668,0,0,0-3.55909-3.71679h-6.646c-.01961.02395-.04.04693-.06055.07129a1.4334,1.4334,0,0,1,.54981.80078,1.32664,1.32664,0,0,1,1.45166,2.02832A7.92475,7.92475,0,0,1,20.57275,20.21484Zm4.2417-4.71679a3.645,3.645,0,0,0,3.58448-3.71485H13.39453c.00049.15723.00293.31641.01318.46387a4.80247,4.80247,0,0,1,3.42579,2.19238,1.35408,1.35408,0,0,1,1.57129,1.0586Zm-14.19238-2.0918h0ZM28.917,10.7832h0a.31064.31064,0,0,0-.00192-.6211l-16.064,0a.31057.31057,0,0,0,.00144.6211C12.94714,10.77962,28.82082,10.77932,28.917,10.7832ZM13.63672,8.2959c-.43925.12409-.32392.88872.10891.8662l14.2446,0c.462.02718.51118-.74792.12062-.86622Zm14.56494-1H28.917a.31056.31056,0,0,0-.00437-.6211H12.85107a.27572.27572,0,0,0-.29492.3086.282.282,0,0,0,.29688.3125c.2003.00767.713-.008.89552-.01468l14.2412,0A1.48781,1.48781,0,0,1,28.20166,7.2959ZM13.36377,5.6748H28.375A3.37328,3.37328,0,0,0,25.05026,1.959l-8.33249,0A3.41855,3.41855,0,0,0,13.36377,5.6748Z"/></g><text x="0" y="47" fill="#000000" font-size="5px" font-weight="bold" font-family="'Helvetica Neue', Helvetica, Arial-Unicode, Arial, Sans-serif">Created by Dicky Prayudawanto</text><text x="0" y="52" fill="#000000" font-size="5px" font-weight="bold" font-family="'Helvetica Neue', Helvetica, Arial-Unicode, Arial, Sans-serif">from the Noun Project</text></svg>